<svg xmlns="http://www.w3.org/2000/svg" width="1200" height="630" viewBox="0 0 1200 630" role="img" aria-labelledby="title desc">
  <title id="title">Smart Lead Form preview</title>
  <desc id="desc">Gradient preview card for the Smart Lead Form project.</desc>
  <defs>
    <linearGradient id="bg" x1="0" y1="0" x2="1" y2="1">
      <stop offset="0" stop-color="#14212f"/>
      <stop offset="0.50" stop-color="#0f7a6c"/>
      <stop offset="1" stop-color="#14212f"/>
    </linearGradient>
    <radialGradient id="glow" cx="24%" cy="18%" r="58%">
      <stop offset="0" stop-color="#f2b84b" stop-opacity="0.34"/>
      <stop offset="1" stop-color="#f2b84b" stop-opacity="0"/>
    </radialGradient>
    <filter id="shadow" x="-20%" y="-20%" width="140%" height="140%">
      <feDropShadow dx="0" dy="22" stdDeviation="28" flood-color="#071018" flood-opacity="0.45"/>
    </filter>
  </defs>
  <rect width="1200" height="630" fill="url(#bg)"/>
  <rect width="1200" height="630" fill="url(#glow)"/>
  <g opacity="0.14">
    <path d="M0 112H1200M0 238H1200M0 364H1200M0 490H1200" stroke="#fff"/>
    <path d="M158 0V630M396 0V630M634 0V630M872 0V630M1110 0V630" stroke="#fff"/>
  </g>
  <g filter="url(#shadow)">
    <rect x="108" y="118" width="984" height="394" rx="28" fill="#14212f" fill-opacity="0.58" stroke="#ffffff" stroke-opacity="0.18"/>
    <text x="600" y="282" text-anchor="middle" font-family="Inter, Segoe UI, Arial, sans-serif" font-size="78" font-weight="800" fill="#ffffff">Smart Lead Form</text>
    <text x="600" y="354" text-anchor="middle" font-family="Inter, Segoe UI, Arial, sans-serif" font-size="30" font-weight="600" fill="#dce8f8">Structured requests, demo admin and lead flow</text>
    <rect x="456" y="394" width="288" height="52" rx="26" fill="#0f7a6c" stroke="#ffffff" stroke-opacity="0.20"/>
    <text x="600" y="429" text-anchor="middle" font-family="Inter, Segoe UI, Arial, sans-serif" font-size="20" font-weight="800" fill="#ffffff">LIVE DEMO</text>
  </g>
</svg>
